# xmcd
#
# Track frame offsets: 
#        150
#        11070
#        25415
#        35772
#        48850
#        60007
#        72867
#        84025
#        94005
#        102742
#        115895
#        127370
#
# Disc length: 1869 seconds
#
# Revision: 6
# Processed by: cddbd v1.5.2PL0 Copyright (c) Steve Scherf et al.
# Submitted via: ExactAudioCopyFreeDBPlugin 1.0
#
DISCID=9b074b0c
DTITLE=Otis Redding - Tell the Truth
DYEAR=1970
DGENRE=Soul
TTITLE0=Demonstration
TTITLE1=Tell the Truth
TTITLE2=Out of Sight
TTITLE3=Give Away None of My Love
TTITLE4=Wholesale Love
TTITLE5=I Got the Will
TTITLE6=Johnny's Heartbreak
TTITLE7=Snatch a Little Piece
TTITLE8=Slippn' and Slidin'
TTITLE9=The Match Game
TTITLE10=A Little Time
TTITLE11=Swingin' on a String
EXTD=YEAR: 1970
EXTT0=
EXTT1=
EXTT2=
EXTT3=
EXTT4=
EXTT5=
EXTT6=
EXTT7=
EXTT8=
EXTT9=
EXTT10=
EXTT11=
PLAYORDER=
